<?xml version="1.0" encoding="UTF-8" standalone="no"?>
<!DOCTYPE svg PUBLIC "-//W3C//DTD SVG 1.1//EN" "http://www.w3.org/Graphics/SVG/1.1/DTD/svg11.dtd">
<svg viewBox="0 0 552 552"
  xmlns="http://www.w3.org/2000/svg"
  xmlns:xlink="http://www.w3.org/1999/xlink" fill-rule="evenodd" clip-rule="evenodd" stroke-linejoin="round" stroke-miterlimit="2">
  <circle cx="275.889" cy="275.889" r="275.889" fill="#f4d89f"/>
  <circle cx="275.889" cy="275.889" r="244.388" fill="#bd2828"/>
  <circle cx="275.889" cy="275.889" r="175.154" fill="#370c0c"/>
  <use xlink:href="#_Image1" x="72.5" y="169.5" width="96" height="96" transform="matrix(.9907 0 0 .9973 0 0)"/>
  <path d="M77.041 259.943l.64-4.48h7.04l1.408-1.28 10.496-74.24-1.152-1.28h-7.04l.64-4.48h42.88c3.755 0 7.36.362 10.816 1.088 3.456.725 6.571 1.856 9.344 3.392 2.774 1.536 4.971 3.52 6.592 5.952 1.622 2.432 2.432 5.312 2.432 8.64 0 3.413-.789 6.592-2.368 9.536-1.578 2.944-3.669 5.525-6.272 7.744-2.602 2.218-5.525 4.053-8.768 5.504 4.096 1.194 7.211 3.072 9.344 5.632 2.134 2.56 2.944 5.845 2.432 9.856l-2.816 22.656 1.152 1.28h8.32l-.64 4.48h-38.4l.64-4.48h7.68l1.408-1.28 2.688-21.12c.512-4.011-.49-7.147-3.008-9.408-2.517-2.262-6.592-3.392-12.224-3.392h-9.6l-4.736 33.92 1.152 1.28h7.04l-.64 4.48h-36.48zm34.304-44.16h9.6c4.096 0 7.552-1.024 10.368-3.072 2.816-2.048 4.95-4.715 6.4-8 1.451-3.286 2.176-6.848 2.176-10.688 0-3.158-.618-5.888-1.856-8.192-1.237-2.304-2.901-4.075-4.992-5.312-2.09-1.238-4.373-1.856-6.848-1.856h-8.32l-1.408 1.28-5.12 35.84z" fill="#f7be4a" fill-rule="nonzero" shape-rendering="geometricPrecision"/>
  <use xlink:href="#_Image2" x="161.168" y="191.79" width="81.634" height="74.978" transform="matrix(.99553 0 0 .9997 0 0)"/>
  <path d="M232.753 248.679l3.84 2.304c-1.962 3.925-4.266 6.613-6.912 8.064-2.645 1.45-5.589 2.176-8.832 2.176-4.01 0-7.338-.982-9.984-2.944-2.645-1.963-4.224-4.864-4.736-8.704-2.645 4.096-5.738 7.061-9.28 8.896-3.541 1.834-7.402 2.752-11.584 2.752-6.656 0-11.093-1.856-13.312-5.568-2.218-3.712-2.901-8.683-2.048-14.912l4.992-36.48-1.28-1.28h-7.68l.64-4.48c4.011 0 8.384-.064 13.12-.192 4.736-.128 8.811-.491 12.224-1.088l1.28 1.28-5.888 42.24c-.426 3.157-.597 5.738-.512 7.744.086 2.005.512 3.456 1.28 4.352.768.896 1.963 1.344 3.584 1.344 3.158 0 6.379-1.899 9.664-5.696 3.286-3.798 5.483-9.664 6.592-17.6l3.712-26.624-1.28-1.28h-7.68l.64-4.48c4.011 0 8.384-.064 13.12-.192 4.736-.128 8.811-.491 12.224-1.088l1.28 1.28-6.784 48.128c-.426 2.986-.32 4.992.32 6.016s1.515 1.536 2.624 1.536c1.28 0 2.454-.512 3.52-1.536 1.067-1.024 2.112-2.347 3.136-3.968z" fill="#f7be4a" fill-rule="nonzero" shape-rendering="geometricPrecision"/>
  <use xlink:href="#_Image3" x="236.157" y="191.79" width="64.866" height="74.978" transform="matrix(.99794 0 0 .9997 0 0)"/>
  <path d="M264.071 261.223c-5.462 0-9.878-.747-13.248-2.24-3.371-1.494-5.824-3.414-7.36-5.76-1.536-2.347-2.304-4.8-2.304-7.36 0-2.816.81-5.248 2.432-7.296 1.621-2.048 3.754-3.072 6.4-3.072 2.133 0 4.074.725 5.824 2.176 1.749 1.45 2.624 3.584 2.624 6.4 0 2.901-.96 5.248-2.88 7.04-1.92 1.792-3.862 2.688-5.824 2.688-1.28 0-2.475-.384-3.584-1.152-1.11-.768-1.664-1.792-1.664-3.072h4.224c0 1.621 1.13 3.221 3.392 4.8 2.261 1.578 5.824 2.368 10.688 2.368 3.157 0 5.93-.384 8.32-1.152 2.389-.768 4.266-1.856 5.632-3.264 1.365-1.408 2.048-3.051 2.048-4.928 0-2.134-.79-3.862-2.368-5.184-1.579-1.323-3.606-2.518-6.08-3.584a212.623 212.623 0 00-7.872-3.2 46.604 46.604 0 01-7.872-3.904c-2.475-1.536-4.502-3.435-6.08-5.696-1.579-2.262-2.368-5.142-2.368-8.64 0-4.352 1.301-8.022 3.904-11.008 2.602-2.987 6.037-5.227 10.304-6.72 4.266-1.494 8.96-2.24 14.08-2.24 7.082 0 12.288 1.258 15.616 3.776 3.328 2.517 4.992 5.525 4.992 9.024 0 2.816-.896 5.205-2.688 7.168-1.792 1.962-3.968 2.944-6.528 2.944-2.134 0-3.968-.768-5.504-2.304-1.536-1.536-2.304-3.542-2.304-6.016 0-2.475.746-4.672 2.24-6.592 1.493-1.92 3.264-2.88 5.312-2.88 1.28 0 2.368.469 3.264 1.408.896.938 1.344 2.304 1.344 4.096h-3.84c0-1.536-.982-2.944-2.944-4.224-1.963-1.28-4.822-1.92-8.576-1.92-2.816 0-5.312.405-7.488 1.216-2.176.81-3.883 1.877-5.12 3.2-1.238 1.322-1.856 2.837-1.856 4.544 0 1.962.789 3.562 2.368 4.8 1.578 1.237 3.584 2.325 6.016 3.264 2.432.938 5.034 1.92 7.808 2.944a43.972 43.972 0 017.808 3.776 19.388 19.388 0 016.016 5.76c1.578 2.346 2.368 5.354 2.368 9.024 0 4.608-1.302 8.469-3.904 11.584-2.603 3.114-6.08 5.461-10.432 7.04-4.352 1.578-9.131 2.368-14.336 2.368z" fill="#f7be4a" fill-rule="nonzero"/>
  <use xlink:href="#_Image4" x="296.527" y="170.384" width="56.29" height="98.018" transform="matrix(.98754 0 0 .99008 0 0)"/>
  <path d="M318.801 261.223c-5.205 0-9.216-1.515-12.032-4.544-2.816-3.03-3.797-7.659-2.944-13.888l5.376-38.528-1.28-1.28h-9.6l.64-4.48c6.059-1.11 11.584-3.755 16.576-7.936 4.992-4.182 8.598-9.643 10.816-16.384h4.48l-3.456 24.32h16.256l-.64 4.48h-15.104l-1.28 1.28-5.888 42.368c-.256 1.706-.064 3.178.576 4.416.64 1.237 1.643 1.856 3.008 1.856 1.366 0 2.902-.704 4.608-2.112 1.707-1.408 3.2-3.222 4.48-5.44l3.84 2.304c-2.304 4.778-5.056 8.234-8.256 10.368-3.2 2.133-6.592 3.2-10.176 3.2z" fill="#f7be4a" fill-rule="nonzero"/>
  <use xlink:href="#_Image5" x="337.975" y="191.79" width="70.498" height="74.978" transform="matrix(.99293 0 0 .9997 0 0)"/>
  <path d="M368.593 261.223c-4.778 0-9.28-.918-13.504-2.752-4.224-1.835-7.616-4.779-10.176-8.832-2.56-4.054-3.84-9.366-3.84-15.936 0-7.424 1.686-13.867 5.056-19.328 3.371-5.462 7.958-9.686 13.76-12.672 5.803-2.987 12.331-4.48 19.584-4.48 3.414 0 6.72.384 9.92 1.152 3.2.768 5.867 2.09 8 3.968 2.134 1.877 3.2 4.437 3.2 7.68 0 3.072-.896 5.845-2.688 8.32-1.792 2.474-4.458 4.629-8 6.464-3.541 1.834-7.978 3.37-13.312 4.608-5.333 1.237-11.584 2.197-18.752 2.88v-4.224c5.291-.427 9.579-1.323 12.864-2.688 3.286-1.366 5.782-2.987 7.488-4.864 1.707-1.878 2.88-3.798 3.52-5.76.64-1.963.96-3.798.96-5.504 0-2.731-.533-4.672-1.6-5.824-1.066-1.152-2.453-1.728-4.16-1.728-2.73 0-5.12 1.13-7.168 3.392-2.048 2.261-3.776 5.141-5.184 8.64a58.796 58.796 0 00-3.2 10.944c-.725 3.797-1.088 7.232-1.088 10.304 0 4.608.726 8.384 2.176 11.328 1.451 2.944 3.307 5.098 5.568 6.464 2.262 1.365 4.587 2.048 6.976 2.048 2.816 0 5.803-.918 8.96-2.752 3.158-1.835 5.931-4.502 8.32-8l3.84 2.304a30.626 30.626 0 01-6.784 7.872c-2.73 2.261-5.824 3.989-9.28 5.184-3.456 1.194-7.274 1.792-11.456 1.792z" fill="#f7be4a" fill-rule="nonzero"/>
  <use xlink:href="#_Image6" x="402.977" y="159.767" width="82.018" height="106.978" transform="matrix(.98817 0 0 .9998 0 0)"/>
  <path d="M403.697 233.447c0-5.462.875-10.411 2.624-14.848 1.75-4.438 4.075-8.256 6.976-11.456 2.902-3.2 6.123-5.654 9.664-7.36 3.542-1.707 7.062-2.56 10.56-2.56 4.438 0 7.958 1.152 10.56 3.456 2.603 2.304 4.459 4.778 5.568 7.424l4.992-35.84-1.28-1.28h-7.68l.64-4.48c4.011 0 8.384-.064 13.12-.192 4.736-.128 8.811-.491 12.224-1.088l1.28 1.28-11.648 80.128c-.426 2.986-.32 4.992.32 6.016s1.515 1.536 2.624 1.536c1.28 0 2.454-.512 3.52-1.536 1.067-1.024 2.112-2.347 3.136-3.968l3.84 2.304c-1.962 3.925-4.266 6.613-6.912 8.064-2.645 1.45-5.589 2.176-8.832 2.176-3.754 0-6.912-.854-9.472-2.56-2.56-1.707-4.224-4.224-4.992-7.552-2.048 3.157-4.586 5.632-7.616 7.424-3.029 1.792-6.421 2.688-10.176 2.688-4.096 0-7.893-.982-11.392-2.944-3.498-1.963-6.314-4.992-8.448-9.088-2.133-4.096-3.2-9.344-3.2-15.744zm19.2 1.92c0 6.485.918 11.242 2.752 14.272 1.835 3.029 4.075 4.544 6.72 4.544 2.902 0 5.483-1.472 7.744-4.416 2.262-2.944 4.075-6.806 5.44-11.584 1.366-4.779 2.048-9.856 2.048-15.232 0-6.486-.896-11.222-2.688-14.208-1.792-2.987-4.053-4.48-6.784-4.48-2.816 0-5.376 1.472-7.68 4.416-2.304 2.944-4.138 6.762-5.504 11.456-1.365 4.693-2.048 9.77-2.048 15.232z" fill="#f7be4a" fill-rule="nonzero"/>
  <use xlink:href="#_Image7" x="82.106" y="265.411" width="91.362" height="96.738" transform="matrix(.99306 0 0 .9973 0 0)"/>
  <path d="M165.489 270.183l1.92 22.912-4.352 1.28c-1.365-4.95-3.306-8.854-5.824-11.712-2.517-2.859-5.312-4.907-8.384-6.144-3.072-1.238-6.144-1.856-9.216-1.856l-10.624 75.52 1.28 1.28h6.912l-.64 4.48h-36.48l.64-4.48h7.168l1.28-1.28 10.624-75.52c-3.072 0-6.293.618-9.664 1.856-3.37 1.237-6.698 3.285-9.984 6.144-3.285 2.858-6.293 6.762-9.024 11.712l-4.096-1.28 8.32-22.912h70.144z" fill="#f7be4a" fill-rule="nonzero"/>
  <use xlink:href="#_Image8" x="149.042" y="287.819" width="82.402" height="74.978" transform="matrix(.9928 0 0 .9997 0 0)"/>
  <path d="M153.457 329.447c0-5.462.875-10.411 2.624-14.848 1.75-4.438 4.075-8.256 6.976-11.456 2.902-3.2 6.123-5.654 9.664-7.36 3.542-1.707 7.062-2.56 10.56-2.56 3.328 0 6.123.661 8.384 1.984 2.262 1.322 4.096 2.965 5.504 4.928 1.408 1.962 2.368 3.882 2.88 5.76l6.016-11.392h12.16l-6.784 48.128c-.426 2.986-.32 4.992.32 6.016s1.515 1.536 2.624 1.536c1.28 0 2.454-.512 3.52-1.536 1.067-1.024 2.112-2.347 3.136-3.968l3.84 2.304c-1.962 3.925-4.266 6.613-6.912 8.064-2.645 1.45-5.589 2.176-8.832 2.176-3.84 0-7.061-.918-9.664-2.752-2.602-1.835-4.245-4.459-4.928-7.872-2.304 3.498-4.949 6.144-7.936 7.936-2.986 1.792-6.357 2.688-10.112 2.688-4.096 0-7.893-.982-11.392-2.944-3.498-1.963-6.314-4.992-8.448-9.088-2.133-4.096-3.2-9.344-3.2-15.744zm19.2 1.92c0 6.485.918 11.242 2.752 14.272 1.835 3.029 4.075 4.544 6.72 4.544 2.902 0 5.483-1.472 7.744-4.416 2.262-2.944 4.075-6.806 5.44-11.584 1.366-4.779 2.048-9.856 2.048-15.232 0-6.486-.896-11.222-2.688-14.208-1.792-2.987-4.053-4.48-6.784-4.48-2.816 0-5.376 1.472-7.68 4.416-2.304 2.944-4.138 6.762-5.504 11.456-1.365 4.693-2.048 9.77-2.048 15.232z" fill="#f7be4a" fill-rule="nonzero"/>
  <use xlink:href="#_Image9" x="219.917" y="287.819" width="70.242" height="74.978" transform="matrix(.98932 0 0 .9997 0 0)"/>
  <path d="M281.041 293.223l1.28 1.28c0 7.424-.618 14.357-1.856 20.8-1.237 6.442-3.008 12.224-5.312 17.344-2.304 5.12-5.056 9.514-8.256 13.184-3.2 3.669-6.784 6.485-10.752 8.448-3.968 1.962-8.213 2.944-12.736 2.944-6.997 0-11.648-2.155-13.952-6.464-2.304-4.31-2.986-10.048-2.048-17.216l4.608-33.28-1.28-1.28h-7.68l.64-4.48c4.011 0 8.384-.064 13.12-.192 4.736-.128 8.811-.491 12.224-1.088l1.28 1.28-5.888 42.112a81.135 81.135 0 00-.512 6.336c-.085 2.09.32 3.818 1.216 5.184.896 1.365 2.582 2.048 5.056 2.048 2.39 0 4.8-.683 7.232-2.048 2.432-1.366 4.651-3.307 6.656-5.824 2.006-2.518 3.627-5.526 4.864-9.024 1.238-3.499 1.856-7.339 1.856-11.52 0-5.035-.789-9.515-2.368-13.44-1.578-3.926-3.306-7.083-5.184-9.472l-6.4.128.64-4.48c3.328 0 7.232-.15 11.712-.448a1465.4 1465.4 0 0011.84-.832z" fill="#f7be4a" fill-rule="nonzero"/>
  <use xlink:href="#_Image5" x="279.749" y="287.819" width="70.498" height="74.978" transform="matrix(.99293 0 0 .9997 0 0)"/>
  <path d="M310.78 357.223c-4.779 0-9.28-.918-13.504-2.752-4.224-1.835-7.616-4.779-10.176-8.832-2.56-4.054-3.84-9.366-3.84-15.936 0-7.424 1.685-13.867 5.056-19.328 3.371-5.462 7.957-9.686 13.76-12.672 5.803-2.987 12.331-4.48 19.584-4.48 3.413 0 6.72.384 9.92 1.152 3.2.768 5.867 2.09 8 3.968 2.133 1.877 3.2 4.437 3.2 7.68 0 3.072-.896 5.845-2.688 8.32-1.792 2.474-4.459 4.629-8 6.464-3.541 1.834-7.979 3.37-13.312 4.608-5.333 1.237-11.584 2.197-18.752 2.88v-4.224c5.291-.427 9.579-1.323 12.864-2.688 3.285-1.366 5.781-2.987 7.488-4.864 1.707-1.878 2.88-3.798 3.52-5.76.64-1.963.96-3.798.96-5.504 0-2.731-.533-4.672-1.6-5.824-1.067-1.152-2.453-1.728-4.16-1.728-2.731 0-5.12 1.13-7.168 3.392-2.048 2.261-3.776 5.141-5.184 8.64a58.72 58.72 0 00-3.2 10.944c-.725 3.797-1.088 7.232-1.088 10.304 0 4.608.725 8.384 2.176 11.328 1.451 2.944 3.307 5.098 5.568 6.464 2.261 1.365 4.587 2.048 6.976 2.048 2.816 0 5.803-.918 8.96-2.752 3.157-1.835 5.931-4.502 8.32-8l3.84 2.304a30.626 30.626 0 01-6.784 7.872c-2.731 2.261-5.824 3.989-9.28 5.184-3.456 1.194-7.275 1.792-11.456 1.792z" fill="#f7be4a" fill-rule="nonzero"/>
  <use xlink:href="#_Image10" x="343.374" y="288.284" width="65.122" height="73.826" transform="matrix(.9867 0 0 .99765 0 0)"/>
  <path d="M344.295 355.943l7.936-55.68-1.28-1.28h-6.4l.64-4.48c3.328 0 7.082-.15 11.264-.448 4.181-.299 7.978-.576 11.392-.832l1.28 1.28-2.048 14.592h1.28c1.706-3.158 3.69-5.931 5.952-8.32 2.261-2.39 4.672-4.267 7.232-5.632 2.56-1.366 5.12-2.048 7.68-2.048 2.73 0 4.949.81 6.656 2.432 1.706 1.621 2.56 3.797 2.56 6.528 0 2.986-.939 5.696-2.816 8.128-1.878 2.432-4.182 3.648-6.912 3.648-2.304 0-4.16-.875-5.568-2.624-1.408-1.75-2.112-3.819-2.112-6.208 0-1.28.213-2.56.64-3.84-3.243 1.962-6.443 5.248-9.6 9.856-3.158 4.608-5.291 10.197-6.4 16.768l-3.968 28.16h-17.408z" fill="#f7be4a" fill-rule="nonzero"/>
  <use xlink:href="#_Image11" x="399.284" y="287.819" width="81.122" height="74.978" transform="matrix(.9893 0 0 .9997 0 0)"/>
  <path d="M466.801 344.679l3.84 2.304c-1.962 3.925-4.266 6.613-6.912 8.064-2.645 1.45-5.589 2.176-8.832 2.176-4.949 0-8.853-1.558-11.712-4.672-2.858-3.115-3.776-7.958-2.752-14.528l3.84-24.32c.512-3.243.662-5.846.448-7.808-.213-1.963-.81-3.392-1.792-4.288-.981-.896-2.41-1.344-4.288-1.344-1.536 0-3.136.448-4.8 1.344-1.664.896-3.242 2.261-4.736 4.096-1.493 1.834-2.837 4.16-4.032 6.976-1.194 2.816-2.048 6.144-2.56 9.984l-4.608 33.28h-17.408l7.68-55.68-1.28-1.28h-6.4l.64-4.48c3.328 0 7.083-.043 11.264-.128 4.182-.086 7.979-.256 11.392-.512l1.28 1.28-1.152 8.448h1.28c2.39-3.328 5.291-5.888 8.704-7.68 3.414-1.792 7.339-2.688 11.776-2.688 6.656 0 11.222 1.856 13.696 5.568 2.475 3.712 3.243 8.682 2.304 14.912l-4.48 28.928c-.426 2.986-.32 4.992.32 6.016s1.515 1.536 2.624 1.536c1.28 0 2.454-.512 3.52-1.536 1.067-1.024 2.112-2.347 3.136-3.968z" fill="#f7be4a" fill-rule="nonzero"/>
  <path d="M99.079 392.977v3.68h7.2v4.768h-7.2v4.064h8.16v5.024H92.807v-22.56h14.432v5.024h-8.16zM124.615 406.833h-8l-1.216 3.68h-6.592l8.224-22.56h7.232l8.192 22.56h-6.624l-1.216-3.68zm-1.568-4.8l-2.432-7.296-2.4 7.296h4.832zM151.495 387.953v4.992h-6.016v17.568h-6.272v-17.568h-5.952v-4.992h18.24zM156.871 410.769c-1.11 0-2-.304-2.672-.912-.672-.608-1.008-1.382-1.008-2.32 0-.939.336-1.718 1.008-2.336.672-.619 1.562-.928 2.672-.928 1.088 0 1.968.309 2.64.928.672.618 1.008 1.397 1.008 2.336 0 .917-.336 1.685-1.008 2.304-.672.618-1.552.928-2.64.928zM178.503 387.953c2.368 0 4.442.474 6.224 1.424 1.781.949 3.152 2.277 4.112 3.984.96 1.706 1.44 3.658 1.44 5.856 0 2.176-.486 4.117-1.456 5.824-.971 1.706-2.347 3.045-4.128 4.016-1.782.97-3.846 1.456-6.192 1.456h-8.928v-22.56h8.928zm-.48 17.024c1.834 0 3.274-.502 4.32-1.504 1.045-1.003 1.568-2.422 1.568-4.256 0-1.856-.523-3.291-1.568-4.304-1.046-1.014-2.486-1.52-4.32-1.52h-2.176v11.584h2.176zM204.519 410.513l-4.48-8.32h-.672v8.32h-6.272v-22.56h9.888c1.813 0 3.349.314 4.608.944 1.258.629 2.208 1.493 2.848 2.592.64 1.098.96 2.33.96 3.696 0 1.536-.422 2.885-1.264 4.048-.843 1.162-2.075 1.989-3.696 2.48l5.088 8.8h-7.008zm-5.152-12.608h3.104c.853 0 1.493-.203 1.92-.608.426-.406.64-.992.64-1.76 0-.726-.219-1.296-.656-1.712-.438-.416-1.072-.624-1.904-.624h-3.104v4.704zM214.247 387.953h6.272v22.56h-6.272zM244.999 410.513h-6.272l-8.352-12.608v12.608h-6.272v-22.56h6.272l8.352 12.768v-12.768h6.272v22.56zM261.927 410.513l-7.072-9.888v9.888h-6.272v-22.56h6.272v9.728l7.008-9.728h7.232l-8.288 10.944 8.704 11.616h-7.584zM274.855 410.769c-1.11 0-2-.304-2.672-.912-.672-.608-1.008-1.382-1.008-2.32 0-.939.336-1.718 1.008-2.336.672-.619 1.562-.928 2.672-.928 1.088 0 1.968.309 2.64.928.672.618 1.008 1.397 1.008 2.336 0 .917-.336 1.685-1.008 2.304-.672.618-1.552.928-2.64.928zM307.751 387.953v22.56h-6.272v-9.056h-7.648v9.056h-6.272v-22.56h6.272v8.48h7.648v-8.48h6.272zM325.607 406.833h-8l-1.216 3.68h-6.592l8.224-22.56h7.232l8.192 22.56h-6.624l-1.216-3.68zm-1.568-4.8l-2.432-7.296-2.4 7.296h4.832zM356.391 410.513h-6.272l-8.352-12.608v12.608h-6.272v-22.56h6.272l8.352 12.768v-12.768h6.272v22.56zM374.375 395.377a3.631 3.631 0 00-1.488-1.376c-.63-.32-1.371-.48-2.224-.48-1.579 0-2.822.512-3.728 1.536-.907 1.024-1.36 2.4-1.36 4.128 0 1.941.485 3.418 1.456 4.432.97 1.013 2.384 1.52 4.24 1.52 2.197 0 3.765-.992 4.704-2.976h-6.304v-4.512h11.712v6.08c-.491 1.194-1.211 2.314-2.16 3.36-.95 1.045-2.15 1.904-3.6 2.576-1.451.672-3.104 1.008-4.96 1.008-2.262 0-4.262-.486-6-1.456a10.128 10.128 0 01-4.032-4.064c-.95-1.739-1.424-3.728-1.424-5.968 0-2.219.474-4.198 1.424-5.936a10.146 10.146 0 014.016-4.064c1.728-.971 3.722-1.456 5.984-1.456 2.837 0 5.184.682 7.04 2.048 1.856 1.365 3.008 3.232 3.456 5.6h-6.752zM401.127 410.737c-2.112 0-4.054-.496-5.824-1.488a11.082 11.082 0 01-4.208-4.128c-1.035-1.76-1.552-3.75-1.552-5.968 0-2.219.517-4.208 1.552-5.968a10.962 10.962 0 014.208-4.112c1.77-.982 3.712-1.472 5.824-1.472 2.133 0 4.08.49 5.84 1.472a10.886 10.886 0 014.176 4.112c1.024 1.76 1.536 3.749 1.536 5.968 0 2.218-.512 4.208-1.536 5.968a10.977 10.977 0 01-4.192 4.128c-1.771.992-3.712 1.488-5.824 1.488zm0-5.824c1.6 0 2.864-.523 3.792-1.568.928-1.046 1.392-2.443 1.392-4.192 0-1.792-.464-3.206-1.392-4.24-.928-1.035-2.192-1.552-3.792-1.552-1.622 0-2.891.517-3.808 1.552-.918 1.034-1.376 2.448-1.376 4.24 0 1.77.458 3.173 1.376 4.208.917 1.034 2.186 1.552 3.808 1.552zM421.639 387.953v13.088c0 1.216.282 2.154.848 2.816.565.661 1.424.992 2.576.992 1.152 0 2.021-.336 2.608-1.008.586-.672.88-1.606.88-2.8v-13.088h6.272v13.088c0 2.069-.438 3.834-1.312 5.296-.875 1.461-2.064 2.56-3.568 3.296-1.504.736-3.174 1.104-5.008 1.104-1.835 0-3.472-.368-4.912-1.104-1.44-.736-2.571-1.83-3.392-3.28-.822-1.451-1.232-3.222-1.232-5.312v-13.088h6.24zM455.271 387.953v4.992h-6.016v17.568h-6.272v-17.568h-5.952v-4.992h18.24zM460.647 410.769c-1.11 0-2-.304-2.672-.912-.672-.608-1.008-1.382-1.008-2.32 0-.939.336-1.718 1.008-2.336.672-.619 1.562-.928 2.672-.928 1.088 0 1.968.309 2.64.928.672.618 1.008 1.397 1.008 2.336 0 .917-.336 1.685-1.008 2.304-.672.618-1.552.928-2.64.928z" fill="#f4d89f" fill-rule="nonzero"/>
</svg>
